<?xml version="1.0" encoding="utf-8"?>
<!-- Generator: Adobe Illustrator 23.0.4, SVG Export Plug-In . SVG Version: 6.00 Build 0)  -->
<svg version="1.1" id="Ebene_1" xmlns="http://www.w3.org/2000/svg" xmlns:xlink="http://www.w3.org/1999/xlink" x="0px" y="0px"
	 viewBox="0 0 595.3 184.8" style="enable-background:new 0 0 595.3 184.8;" xml:space="preserve">
<style type="text/css">
	.st0{fill:#ED7703;}
	.st1{fill-rule:evenodd;clip-rule:evenodd;}
	.st2{fill:none;stroke:#000000;stroke-miterlimit:3.8637;}
	.st3{fill:#FFFFFF;}
</style>
<polygon class="st0" points="156,3.2 238.3,3.2 238.3,85.6 156,85.6 "/>
<polygon class="st0" points="256.1,3.2 338.4,3.2 338.4,85.6 256.1,85.6 "/>
<polygon class="st0" points="356,3.2 438.3,3.2 438.3,85.6 356,85.6 "/>
<path d="M20.2,122.9c-0.3,0.7-0.5,0.9-0.8,1c-0.1,0.1-0.3,0.1-0.5,0.1c-0.6,0-1.5-0.5-2.1-0.7c-1.1-0.4-2.5-0.4-2.9-0.4
	c-4.3,0-6.6,2-7.7,3.3c-2,2.3-2.2,5.1-2.2,6.2c0,1,0.2,4.1,2.3,6.4c1.1,1.2,3.6,3.1,7.9,3.1c2.8,0,5-0.7,5.9-1.2
	c0.6-0.3,1.3-0.8,1.4-0.8v-5.4c0.1-1.2,0.1-1.9,1.4-2.2c0.4-0.1,1-0.1,1.1-0.1v-0.8h-7.8v0.8c2,0.1,2.5,0.3,2.5,2.4v4.8
	c-0.8,0.5-1.7,1.2-3.8,1.2c-2.4,0-4.5-1.1-5.9-3.2c-1.4-2.1-1.4-4.4-1.4-5.2c0-2.5,0.9-5,2.8-6.6c1.7-1.4,3.5-1.5,4.3-1.5
	c2,0,4,1,5,2.8c0.4,0.7,0.7,1.5,0.7,1.8h0.7l-0.3-5.9L20.2,122.9L20.2,122.9z"/>
<path d="M36.6,123.3h-8.3v0.8c0.5,0,1.2,0.1,2,0.9c0.3,0.3,0.3,0.3,0.7,0.8l5.6,8v4.4c0,0.2,0.2,1.4-0.5,2.1c-0.5,0.5-1.3,0.5-2,0.5
	v0.8h8.2v-0.8c-1,0-2-0.1-2.4-1.2c-0.2-0.5-0.2-1-0.2-1.6v-4.3l4.7-7.1c0.6-0.9,1.3-1.9,2.4-2.4c0.4-0.2,0.9-0.3,1-0.3v-0.8h-6.1
	v0.7c1.1,0.1,1.7,0.3,1.7,0.9s-0.4,1.1-0.6,1.5l-3.2,4.9l-0.5,1c-0.6-1-1.2-2.1-1.9-3.1c-0.7-1.1-1.4-2.1-2.1-3.2
	c-0.4-0.5-0.5-0.8-0.5-1.2c0-0.1,0-0.3,0.1-0.4c0.4-0.4,1.5-0.4,2-0.4v-0.5H36.6z"/>
<path d="M58.5,123.3h-5.8v0.7c1.2,0.1,2.3,0.2,2.5,1.5c0.1,0.3,0.1,0.6,0,1v11.9c0,0.4,0.2,1.8-1.1,2.3c-0.4,0.1-0.6,0.2-1.5,0.2
	v0.8h6.8v-0.8c-0.6,0-1.2,0-1.8-0.3c-0.9-0.6-0.8-2-0.8-2.2v-12c1,2.4,2,4.8,3,7.2c1.1,2.7,2.3,5.4,3.5,8.2h0.6
	c1.2-2.6,2.4-5.3,3.5-7.9c1.1-2.5,2.1-4.9,3.2-7.4V138c0,0.7,0,1.7-0.6,2.3c-0.5,0.6-1.4,0.6-1.6,0.6H68v0.7h8.1v-0.7
	c-0.9,0-2-0.1-2.4-1c-0.1-0.3-0.2-0.6-0.2-1.4v-11.9c0-0.3-0.2-1.9,1.1-2.3c0.3-0.1,0.7-0.2,1.4-0.2v-0.7h-5.7L64.6,137L58.5,123.3
	L58.5,123.3z"/>
<path d="M96.5,133.2c-1.1-1.2-2.2-2.5-3.3-3.8c-1.8-2.1-3.6-4.1-5.4-6.1h-5v0.7c0.8,0.3,1.7,0.6,2.3,1.3c0.5,0.5,0.5,0.8,0.4,1.4
	v11.7c0,0.5,0,1.1-0.3,1.6c-0.5,0.8-1.5,0.9-2.3,0.9v0.8h6.9V141c-2.1-0.1-2.6-0.5-2.6-2.7V127c0.9,1.1,1.8,2.2,2.8,3.3
	c1.4,1.7,2.9,3.3,4.4,5c1.9,2.2,3.8,4.4,5.8,6.7l0.6-0.1v-15.2c0-0.3-0.2-1.8,1.1-2.3c0.5-0.2,1-0.2,1.5-0.2v-0.8h-6.9v0.7
	c2.3,0,2.6,0.6,2.7,2.8v9.7c-0.5-0.6-0.9-1.3-1.4-1.9L96.5,133.2L96.5,133.2z"/>
<path class="st1" d="M117.7,122.7l-7.2,15.9c-0.5,0.9-0.9,1.8-2,2.1c-0.2,0.1-0.6,0.1-0.9,0.1v0.7h6.2v-0.7c-0.1,0-1.2,0.1-1.7-0.5
	c-0.1-0.2-0.2-0.4-0.2-0.6c0-0.5,0.3-1.1,0.4-1.2l1.3-3.1h6.8l1.3,3c0.2,0.4,0.3,0.7,0.3,1.2c0,1.3-1.5,1.2-1.7,1.2v0.8h7.3v-0.8
	c-0.4,0-1.2,0.1-1.7-0.8c-0.1-0.2-0.2-0.4-0.5-0.9l-6.9-16.5h-0.8V122.7z M114,134.3c0.6-1.2,1.1-2.5,1.6-3.7s1-2.5,1.4-3.7
	c0.4,1.2,0.9,2.4,1.3,3.5c0.5,1.3,1.1,2.6,1.6,3.9H114L114,134.3z"/>
<path d="M133.4,135.5v6.3h0.7c0.1-0.4,0.2-0.8,0.5-1c0.2-0.1,0.3-0.1,0.4-0.1c0.3,0,0.6,0.2,0.8,0.3c1.6,0.8,3.1,0.9,3.8,0.9
	c2.9,0,4.5-1.5,5.1-2.5s0.7-2,0.7-2.5c0-1.8-0.9-3.1-2.3-4.2c-0.4-0.3-0.8-0.6-1.2-0.9l-4.1-2.6c-0.7-0.5-1.3-0.9-1.6-1.7
	c-0.2-0.4-0.2-0.7-0.2-0.9c0-1,0.5-1.7,0.8-1.9c0.5-0.4,1.3-0.7,2-0.7c1.8,0,3.4,1.4,4.1,3c0.4,0.8,0.6,1.7,0.7,2h0.8v-6h-0.7
	c-0.1,0.1-0.2,1-0.8,1c-0.4,0-0.8-0.3-1.6-0.6c-1.1-0.4-2.2-0.4-2.6-0.4c-2.7,0-4.1,1.4-4.7,2.3c-0.6,0.9-0.6,1.9-0.6,2.3
	c0,2.7,2.3,4.3,3,4.7l0.6,0.4l3.1,1.9c0.9,0.6,1.2,0.8,1.6,1.2c0.7,0.8,0.8,1.5,0.8,1.9c0,1.3-0.8,2.4-2,2.8c-0.5,0.2-1,0.2-1.2,0.2
	c-1.9,0-3.7-1.2-4.7-3c-0.4-0.9-0.6-1.9-0.6-2.2L133.4,135.5L133.4,135.5z"/>
<path d="M160.6,123.3h-8.1v0.7c0.6,0,1.1,0,1.6,0.3c1,0.5,1,1.6,1,2.6V138c0,1.2-0.1,2.4-1.4,2.8c-0.4,0.1-1.1,0.1-1.1,0.1v0.7h8
	v-0.7c-0.8,0-1.8-0.1-2.2-0.7c-0.4-0.5-0.4-1.2-0.4-1.8v-11.6c0-1,0-2,1.1-2.4c0.5-0.2,1-0.2,1.5-0.3L160.6,123.3L160.6,123.3z"/>
<path d="M175,123.2h-8v0.8c1,0,2,0.1,2.3,1.1c0.1,0.4,0.2,1,0.2,1.5l0.1,8.7c0.1,1.7,0.2,2.3,0.6,3.1c0.1,0.3,0.4,0.9,1,1.5
	c0.9,0.9,2.8,2,5.8,2c4.3,0,6.1-2.2,6.8-4c0.5-1.3,0.5-2.9,0.6-3.3v-8.3c-0.1-1,0.1-1.9,1.1-2.2c0.5-0.2,1.2-0.2,1.3-0.2v-0.8H180
	v0.8c1.2,0,2.3,0.1,2.5,1.5c0.1,0.4,0.1,0.6,0.1,1v8.2c-0.2,1.6-0.3,3-1.3,4.1c-1.4,1.5-3.2,1.7-3.9,1.7c-1.5,0-3-0.5-3.9-1.6
	s-1-2.5-1-3c0-0.3,0-0.6-0.1-0.9v-8.7c0-0.2-0.2-1.4,0.7-2c0.5-0.4,1.2-0.4,1.9-0.4V123.2L175,123.2z"/>
<path d="M199,123.3h-5.8v0.7c1.2,0.1,2.3,0.2,2.5,1.5c0.1,0.3,0.1,0.6,0,1v11.9c0,0.4,0.2,1.8-1.1,2.3c-0.4,0.1-0.7,0.2-1.5,0.2v0.8
	h6.8v-0.8c-0.7,0-1.2,0-1.8-0.3c-0.9-0.6-0.8-2-0.8-2.2v-12c1,2.4,2,4.8,3,7.2c1.1,2.7,2.3,5.4,3.5,8.2h0.7c1.2-2.6,2.4-5.3,3.5-7.9
	c1.1-2.5,2.1-4.9,3.2-7.4V138c0,0.7,0,1.7-0.6,2.3c-0.5,0.6-1.4,0.6-1.6,0.6h-0.4v0.7h8.1v-0.7c-0.9,0-2-0.1-2.4-1
	c-0.1-0.3-0.2-0.6-0.2-1.4v-11.9c0-0.3-0.2-1.9,1.1-2.3c0.3-0.1,0.6-0.2,1.4-0.2v-0.7h-5.7l-6.1,13.8L199,123.3L199,123.3z"/>
<path d="M242.3,123.3h-8v0.7c0.9,0,1.3,0.1,1.7,0.3c0.9,0.5,0.9,1.7,0.9,2.7v11.2c0,1.3-0.1,2.3-1.5,2.6c-0.4,0.1-0.5,0.1-1.1,0.1
	v0.7h14.6l1.7-4.7l-0.7-0.3c-0.6,1.1-1.1,2-2.1,2.7c-1.1,0.8-2.2,0.9-3.5,0.9h-2.8c-0.1,0-1.2,0.1-1.6-0.5c-0.3-0.4-0.2-1.2-0.2-1.4
	v-11.9c0-0.4-0.2-2,1.2-2.4c0.3-0.1,0.6-0.1,1.3-0.1v-0.6H242.3z"/>
<path class="st1" d="M262.7,123.2h-8v0.8c1,0,2,0.1,2.3,1.1c0.1,0.4,0.2,1,0.2,1.5l0.1,8.7c0.1,1.7,0.2,2.3,0.6,3.1
	c0.1,0.3,0.4,0.9,1,1.5c0.9,0.9,2.8,2,5.8,2c4.3,0,6.1-2.2,6.8-4c0.5-1.3,0.5-2.9,0.6-3.3v-8.3c-0.1-1,0.1-1.9,1.1-2.2
	c0.5-0.2,1.2-0.2,1.3-0.2v-0.8h-6.7v0.8c1.2,0,2.3,0.1,2.5,1.5c0.1,0.4,0.1,0.6,0.1,1v8.2c-0.2,1.6-0.3,3-1.3,4.1
	c-1.4,1.5-3.2,1.7-3.9,1.7c-1.5,0-3-0.5-3.9-1.6s-1-2.5-1-3c0-0.3,0-0.6-0.1-0.9v-8.7c0-0.2-0.2-1.4,0.7-2c0.5-0.4,1.2-0.4,1.9-0.4
	v-0.6H262.7z M260.7,119.6c-0.2,0.7,0.2,1.4,0.8,1.7c0.3,0.1,0.5,0.1,0.7,0.1c0.8,0,1.5-0.6,1.5-1.5c0-0.8-0.6-1.5-1.4-1.5
	C261.6,118.5,260.9,119,260.7,119.6L260.7,119.6z M266.8,119.6c-0.2,0.7,0.1,1.4,0.8,1.7c0.3,0.1,0.4,0.2,0.7,0.2
	c0.8,0,1.5-0.6,1.5-1.4s-0.7-1.6-1.5-1.6C267.6,118.5,267,119,266.8,119.6L266.8,119.6z"/>
<path d="M294.3,133.2c-1.1-1.2-2.2-2.5-3.3-3.8c-1.8-2.1-3.6-4.1-5.4-6.1h-5v0.7c0.8,0.3,1.7,0.6,2.3,1.3c0.5,0.5,0.5,0.8,0.4,1.4
	v11.7c0,0.5,0,1.1-0.3,1.6c-0.5,0.8-1.5,0.9-2.3,0.9v0.8h6.9V141c-2.1-0.1-2.6-0.5-2.6-2.7V127c0.9,1.1,1.8,2.2,2.8,3.3
	c1.4,1.7,2.9,3.3,4.4,5c2,2.2,3.8,4.4,5.8,6.7l0.7-0.1v-15.2c0-0.3-0.2-1.8,1.1-2.3c0.5-0.2,1-0.2,1.5-0.2v-0.8h-6.9v0.7
	c2.3,0,2.6,0.6,2.7,2.8v9.7c-0.5-0.6-0.9-1.3-1.4-1.9L294.3,133.2L294.3,133.2z"/>
<path d="M307.4,124c0.8,0,1.1,0.1,1.5,0.3c1,0.5,1,1.5,1,2.5v11.5c0,0.5,0,0.6,0,0.9c-0.3,1.9-2,1.7-2.5,1.7v0.8H322
	c0.2-0.7,0.5-1.4,0.7-2.1c0.5-1.7,0.4-1.5,0.9-2.6l-0.7-0.2c-0.5,1-1.1,2.1-2.1,2.8s-2,0.8-2.4,0.9c-0.3,0-0.5,0-0.8,0h-2.7
	c-0.7,0-0.9,0-2.1-0.4v-7.4h4.2c0.7,0,1.6,0.1,2.1,0.6c0.4,0.4,0.5,1,0.5,2.3h0.8v-6.7h-0.8c0,0.7,0.1,1.5-0.5,2.1
	c-0.4,0.4-1,0.5-2,0.6h-4.2v-6.8h5c0.8,0.1,1.7,0.1,2.2,0.7c0.7,0.7,1.2,2.4,1.2,2.4h0.7l-0.4-4.3h-14.1v0.4H307.4z"/>
<path class="st1" d="M338.3,141.6c1.7-0.1,3.1-0.2,4.4-1.2c1.6-1.3,1.9-3,1.9-3.7c0-1.1-0.4-2-0.6-2.3c-0.3-0.6-1.1-1.6-2.8-2
	c-0.5-0.1-1-0.2-1.5-0.2c0.9-0.1,1.4-0.3,1.8-0.5c1.4-0.7,2.3-2.1,2.3-3.7c0-1.3-0.6-2.2-0.9-2.5c-1.3-1.6-3.2-1.9-3.8-2l-1.5-0.2
	h-8v0.8c1.3,0,2.3,0.2,2.5,1.6c0.1,0.3,0.1,0.6,0.1,1v11.6c0,0.7,0,1.8-0.7,2.2c-0.5,0.4-1.2,0.4-1.8,0.4v0.8h8.6V141.6z M335,132.9
	c0.8-0.1,1.1-0.2,1.5-0.2c1.6,0,3.4,0.7,4.2,2.2c0.3,0.5,0.5,1.1,0.5,1.7c0,0.9-0.4,1.6-0.6,1.9c-0.8,1.2-2.3,1.8-3.7,1.8
	c-0.6,0-0.9-0.1-2-0.4v-7H335z M335,124.7c0.2-0.1,0.9-0.3,1.6-0.3c1.1,0,2.4,0.5,3.1,1.3c0.5,0.6,0.8,1.4,0.8,2.2
	c0,2.3-2,3.6-4.1,3.6c-0.6,0-1.2-0.1-1.4-0.1V124.7L335,124.7z"/>
<path d="M359.6,123.2h-8v0.8c1,0,2,0.1,2.3,1.1c0.1,0.4,0.2,1,0.2,1.5l0.1,8.7c0.1,1.7,0.2,2.3,0.6,3.1c0.1,0.3,0.4,0.9,1,1.5
	c0.9,0.9,2.8,2,5.8,2c4.3,0,6.1-2.2,6.8-4c0.5-1.3,0.5-2.9,0.6-3.3v-8.3c-0.1-1,0.1-1.9,1.1-2.2c0.5-0.2,1.2-0.2,1.3-0.2v-0.8h-6.7
	v0.8c1.2,0,2.3,0.1,2.5,1.5c0.1,0.4,0.1,0.6,0.1,1v8.2c-0.2,1.6-0.3,3-1.3,4.1c-1.4,1.5-3.2,1.7-3.9,1.7c-1.5,0-3-0.5-3.9-1.6
	s-1-2.5-1-3c0-0.3,0-0.6-0.1-0.9v-8.7c0-0.2-0.2-1.4,0.7-2c0.5-0.4,1.2-0.4,1.9-0.4v-0.6H359.6z"/>
<path class="st1" d="M388.2,132.9c1.2-0.4,2.3-0.8,3.2-1.8c0.7-0.8,1.1-1.9,1.1-2.9c0-1.4-0.7-2.4-1-2.8c-1.4-1.7-3.1-1.9-5.2-2.1
	h-8.6v0.8c1.3,0,2.3,0.2,2.5,1.7c0.1,0.3,0.1,0.9,0.1,1v11.9c0,0.5,0.1,1.1-0.3,1.5c-0.5,0.8-1.4,0.8-2.3,0.8v0.8h8V141
	c-0.8,0-1.7-0.1-2.2-0.8c-0.4-0.6-0.3-1.5-0.3-1.7v-5.1h1.8l6.2,8.3h4.9V141c-1.7-0.4-2.1-0.6-3.3-2L388.2,132.9L388.2,132.9z
	 M383.2,124.7c0.2-0.1,1-0.3,1.8-0.3c1.5,0,3,0.8,3.7,2.2c0.2,0.5,0.3,1.1,0.3,1.7c0,0.9-0.2,2.7-2.3,3.5c-1.3,0.5-3.2,0.4-3.5,0.4
	V124.7L383.2,124.7z"/>
<path d="M417.7,122.9c-0.3,0.7-0.5,0.9-0.8,1c-0.1,0.1-0.3,0.1-0.5,0.1c-0.6,0-1.5-0.5-2.1-0.7c-1.1-0.4-2.5-0.4-2.9-0.4
	c-4.3,0-6.6,2-7.7,3.3c-2,2.3-2.2,5.1-2.2,6.2c0,1,0.2,4.1,2.3,6.4c1.1,1.2,3.6,3.1,7.9,3.1c2.8,0,5-0.7,5.9-1.2
	c0.6-0.3,1.3-0.8,1.4-0.8v-5.4c0.1-1.2,0.1-1.9,1.4-2.2c0.4-0.1,1-0.1,1.1-0.1v-0.8h-7.8v0.8c2,0.1,2.5,0.3,2.5,2.4v4.8
	c-0.8,0.5-1.7,1.2-3.8,1.2c-2.4,0-4.5-1.1-5.9-3.2c-1.4-2.1-1.4-4.4-1.4-5.2c0-2.5,0.9-5,2.8-6.6c1.7-1.4,3.5-1.5,4.3-1.5
	c2,0,4,1,5,2.8c0.4,0.7,0.7,1.5,0.7,1.8h0.7l-0.3-5.9L417.7,122.9L417.7,122.9z"/>
<path d="M427.6,124c0.8,0,1.1,0.1,1.5,0.3c1,0.5,1,1.5,1,2.5v11.5c0,0.5,0,0.6,0,0.9c-0.3,1.9-2,1.7-2.5,1.7v0.8h14.7
	c0.2-0.7,0.5-1.4,0.7-2.1c0.5-1.7,0.4-1.5,0.9-2.6l-0.7-0.2c-0.5,1-1.1,2.1-2.1,2.8s-2,0.8-2.4,0.9c-0.3,0-0.5,0-0.8,0h-2.7
	c-0.7,0-0.9,0-2.1-0.4v-7.4h4.2c0.7,0,1.6,0.1,2.1,0.6c0.4,0.4,0.5,1,0.5,2.3h0.8v-6.7h-0.8c0,0.7,0.1,1.5-0.5,2.1
	c-0.4,0.4-1,0.5-2,0.6H433v-6.8h5c0.8,0.1,1.7,0.1,2.2,0.7c0.7,0.7,1.2,2.4,1.2,2.4h0.7l-0.4-4.3h-14.1L427.6,124L427.6,124z"/>
<path class="st1" d="M460.2,132.9c1.2-0.4,2.3-0.8,3.2-1.8c0.7-0.8,1.1-1.9,1.1-2.9c0-1.4-0.7-2.4-1-2.8c-1.4-1.7-3.1-1.9-5.2-2.1
	h-8.6v0.8c1.3,0,2.3,0.2,2.5,1.7c0.1,0.3,0.1,0.9,0.1,1v11.9c0,0.5,0.1,1.1-0.3,1.5c-0.5,0.8-1.4,0.8-2.3,0.8v0.8h8V141
	c-0.8,0-1.7-0.1-2.2-0.8c-0.4-0.6-0.3-1.5-0.3-1.7v-5.1h1.8l6.2,8.3h4.9V141c-1.7-0.4-2.1-0.6-3.3-2L460.2,132.9L460.2,132.9z
	 M455.2,124.7c0.2-0.1,1-0.3,1.8-0.3c1.5,0,3,0.8,3.7,2.2c0.2,0.5,0.3,1.1,0.3,1.7c0,0.9-0.2,2.7-2.3,3.5c-1.3,0.5-3.2,0.4-3.5,0.4
	V124.7L455.2,124.7z"/>
<path d="M484.9,124c1.6,0.1,2.1,0.3,2.4,1.2c0.1,0.4,0.2,0.8,0.2,1.6v11.3c0,0.7,0,1.7-0.5,2.2s-1.4,0.5-2.1,0.5v0.8h8.1v-0.8
	c-1.2,0-2.3-0.1-2.5-1.6c-0.1-0.3-0.1-0.4-0.1-0.9v-5.6h9.1v5.5c0,0.3,0.2,2-1.1,2.4c-0.5,0.2-0.9,0.2-1.5,0.2v0.8h8l-0.1-0.8
	c-1.5-0.1-2-0.2-2.3-1c-0.2-0.6-0.2-1.5-0.2-1.6v-11.6c0-1.3,0.1-2.4,1.5-2.6c0.4-0.1,0.7-0.1,1.1,0v-0.8h-8v0.8
	c0.7,0,1.7,0.1,2.2,0.7c0.3,0.4,0.4,1,0.4,2.1v4.7h-9v-4.8c0-0.3-0.2-2,1.1-2.4c0.5-0.2,1.3-0.2,1.5-0.2v-0.8H485v0.7H484.9z"/>
<path d="M511.5,124c0.8,0,1.1,0.1,1.5,0.3c1,0.5,1,1.5,1,2.5v11.5c0,0.5,0,0.6,0,0.9c-0.3,1.9-2,1.7-2.5,1.7v0.8h14.7
	c0.2-0.7,0.5-1.4,0.7-2.1c0.5-1.7,0.4-1.5,0.9-2.6l-0.7-0.2c-0.5,1-1.1,2.1-2.1,2.8s-2,0.8-2.4,0.9c-0.3,0-0.5,0-0.8,0H519
	c-0.7,0-0.9,0-2.1-0.4v-7.4h4.2c0.7,0,1.6,0.1,2.1,0.6c0.4,0.4,0.5,1,0.5,2.3h0.8v-6.7h-0.8c0,0.7,0.1,1.5-0.5,2.1
	c-0.4,0.4-1,0.5-2,0.6H517v-6.8h5c0.8,0.1,1.7,0.1,2.2,0.7c0.7,0.7,1.2,2.4,1.2,2.4h0.7l-0.4-4.3h-14.1v0.4H511.5z"/>
<path d="M541.7,123.3h-8.1v0.7c0.6,0,1.1,0,1.6,0.3c1,0.5,1,1.6,1,2.6V138c0,1.2-0.1,2.4-1.4,2.8c-0.4,0.1-1.1,0.1-1.1,0.1v0.7h8
	v-0.7c-0.8,0-1.8-0.1-2.2-0.7c-0.4-0.5-0.4-1.2-0.4-1.8v-11.6c0-1,0-2,1.1-2.4c0.5-0.2,1-0.2,1.5-0.3L541.7,123.3L541.7,123.3z"/>
<path class="st1" d="M548.2,124c0.1,0,1.6-0.1,2.2,0.7c0.5,0.7,0.4,2.2,0.4,2.2v11c0,0.8,0,1.8-0.5,2.3s-1.4,0.5-2.1,0.5v0.7h9.9
	c0.5,0,2.2-0.1,3.7-0.6s2.4-1.3,2.9-1.7c2.7-2.4,2.9-5.7,2.9-6.9c0-3.8-2-6-3.1-6.9c-1.7-1.4-3.5-1.7-4.3-1.9
	c-0.4-0.1-0.8-0.1-1.2-0.2c-0.9-0.1-1.8-0.1-2.7-0.1s-1.9,0-2.8,0c-1.8,0-3.5,0-5.3,0L548.2,124L548.2,124z M553.7,124.8
	c0.2-0.1,1.2-0.3,2.1-0.3c0.4,0,2.7,0.1,4.2,0.8c0.9,0.4,2.7,1.5,3.6,3.9c0.5,1.4,0.5,2.7,0.5,3.2c0,3-1.2,4.8-2.1,5.7
	c-0.4,0.5-0.9,0.9-1.5,1.2c-1.1,0.6-2.9,1.1-4.3,1.1c-0.7,0-1.2-0.1-2.6-0.3L553.7,124.8L553.7,124.8z"/>
<path d="M574.3,124c0.8,0,1.1,0.1,1.5,0.3c1,0.5,1,1.5,1,2.5v11.5c0,0.5,0,0.6,0,0.9c-0.3,1.9-2,1.7-2.5,1.7v0.8H589
	c0.2-0.7,0.5-1.4,0.7-2.1c0.5-1.7,0.4-1.5,0.9-2.6l-0.7-0.2c-0.5,1-1.1,2.1-2.1,2.8s-2,0.8-2.4,0.9c-0.3,0-0.5,0-0.8,0h-2.7
	c-0.7,0-0.9,0-2.1-0.4v-7.4h4.2c0.7,0,1.6,0.1,2.1,0.6c0.4,0.4,0.5,1,0.5,2.3h0.8v-6.7h-0.8c0,0.7,0.1,1.5-0.5,2.1
	c-0.4,0.4-1,0.5-2,0.6h-4.2v-6.8h5c0.8,0.1,1.7,0.1,2.2,0.7c0.7,0.7,1.2,2.4,1.2,2.4h0.7l-0.4-4.3h-14.1v0.4H574.3z"/>
<line class="st2" x1="591" y1="104.2" x2="4.4" y2="104.2"/>
<path class="st3" d="M216.9,16.3c-0.8,2-1.4,2.6-2.4,3c-0.3,0.2-0.8,0.3-1.6,0.3c-1.9,0-4.2-1.4-6.1-2c-3.3-1.1-7.4-1.1-8.3-1.1
	c-12.4,0-19.3,5.8-22.5,9.6c-5.8,6.8-6.3,14.9-6.3,18.1c0,3,0.5,12,6.7,18.8c3.3,3.6,10.6,9,22.9,9c8.3,0,14.5-2.1,17.1-3.4
	c1.7-0.8,3.9-2.2,4.2-2.4V50.3c0.2-3.6,0.4-5.6,3.9-6.4c1.3-0.3,3-0.3,3.3-0.3v-2.3h-22.7v2.3c5.8,0.2,7.2,0.8,7.3,7v14
	c-2.2,1.6-5,3.6-11,3.6c-7.1,0-13.2-3.3-17.1-9.3c-3.9-6-4.1-12.7-4.1-15.2c0-7.3,2.6-14.7,8.2-19.4c4.9-4,10.2-4.5,12.4-4.5
	c5.8,0,11.6,2.9,14.6,8c1.3,2.1,1.9,4.5,2.1,5.4h2.1l-0.8-17.1h-1.9V16.3z"/>
<path class="st3" d="M297.2,17.7h-23.3v2c2.7,0,3.7,0.2,4.9,0.9c2.7,1.5,2.7,5,2.7,7.8v32.7c0,3.7-0.3,6.8-4.2,7.6
	c-1.1,0.2-1.4,0.2-3.3,0.2V71h42.5l5-13.7l-2-0.8c-1.7,3.1-3.3,5.8-6.2,8c-3.3,2.3-6.4,2.6-10.2,2.7h-8c-0.2,0-3.6,0.3-4.7-1.4
	c-0.8-1.1-0.6-3.6-0.5-4V27.1c-0.1-1.1-0.5-5.8,3.6-7c0.8-0.2,1.8-0.4,3.8-0.4L297.2,17.7L297.2,17.7z"/>
<path class="st3" d="M367.7,19.7c4.6,0.2,6.1,1,7,3.5c0.4,1.1,0.5,2.2,0.6,4.6v33.1c0.1,2.1,0,4.9-1.5,6.4c-1.6,1.5-3.9,1.4-6.1,1.4
	l-0.1,2.3h23.7v-2.2c-3.6-0.1-6.7-0.3-7.4-4.7c-0.2-0.8-0.2-1.3-0.2-2.7V45.1h26.5v16.1c0,0.9,0.5,5.7-3.3,7.1
	c-1.4,0.5-2.7,0.5-4.3,0.5V71H426l-0.2-2.3c-4.3-0.2-5.9-0.7-6.8-3c-0.7-1.7-0.5-4.3-0.5-4.7V27.3c0-3.8,0.4-7,4.4-7.5
	c1.1-0.2,2-0.2,3.1-0.1v-2.3h-23.3v2.3c2.1,0.1,4.9,0.2,6.3,2c0.8,1.2,1.1,2.8,1.2,6v13.7h-26.4v-14c0-0.9-0.5-5.8,3.3-7.1
	c1.6-0.6,3.8-0.5,4.3-0.5v-2.3h-23.6L367.7,19.7L367.7,19.7z"/>
<g>
	<path d="M81.4,169.1h2v1.6l0,0c0.5-0.8,1.8-1.8,3.8-1.8c3.3,0,4.8,2.7,4.8,5.7c0,3.1-1.4,6.1-4.8,6.1c-2,0-3.1-0.8-3.7-1.8l0,0v6.2
		h-2.1C81.4,185.1,81.4,169.1,81.4,169.1z M86.8,170.5c-2.2,0-3.3,2.1-3.3,4.2c0,1.9,1,4.2,3.3,4.2c2.2,0,3.1-2.5,3.1-4.2
		C89.9,172.6,89.1,170.5,86.8,170.5z"/>
	<path d="M104.6,179.8c-0.8,0.3-1.7,0.7-3.5,0.7c-4,0-5.8-2.4-5.8-6.1c0-3.3,2.1-5.7,5.3-5.7c3.7,0,5,2.7,5,6.3h-8
		c0,2.2,1.7,3.7,3.7,3.7c1.4,0,2.9-0.7,3.5-1.1v2.2H104.6z M103.2,173.6c0-1.7-1-3.1-2.8-3.1c-2,0-2.9,1.7-3,3.1H103.2z"/>
	<path d="M109.3,169.1h1.9v1.7l0,0c0.5-1.2,1.7-2,2.9-2c0.6,0,0.9,0.1,1.4,0.2v1.8c-0.4-0.2-0.8-0.2-1.1-0.2c-1.8,0-3.1,1.8-3.1,4.6
		v5.1h-2.1L109.3,169.1L109.3,169.1z"/>
	<path d="M118.1,178.1c0.8,0.5,2,0.8,2.6,0.8c0.9,0,2.1-0.4,2.1-1.6c0-2-4.9-1.9-4.9-5c0-2.3,1.7-3.5,4-3.5c1,0,1.8,0.2,2.6,0.4
		l-0.2,1.8c-0.5-0.3-1.7-0.6-2.2-0.6c-1.1,0-2,0.4-2,1.4c0,2.3,4.9,1.6,4.9,5.2c0,2.4-1.9,3.5-3.9,3.5c-1.1,0-2.1-0.1-3.1-0.6
		L118.1,178.1z"/>
	<path d="M133.6,168.8c3.4,0,5.7,2.5,5.7,5.9c0,3.2-2.3,5.9-5.7,5.9s-5.7-2.7-5.7-5.9C127.9,171.3,130.2,168.8,133.6,168.8z
		 M133.6,178.9c2.4,0,3.5-2.2,3.5-4.2c0-2.1-1.3-4.2-3.5-4.2s-3.5,2.1-3.5,4.2C130.1,176.7,131.1,178.9,133.6,178.9z M130.7,165.1
		h2.1v2.2h-2.1V165.1z M134.4,165.1h2.1v2.2h-2.1V165.1z"/>
	<path d="M143.2,169.1h2v1.8l0,0c0.6-1.3,2.1-2,3.7-2c2.9,0,4.2,1.8,4.2,4.8v6.7H151v-5.8c0-2.6-0.6-3.9-2.4-4
		c-2.4,0-3.4,1.9-3.4,4.6v5.2h-2.1L143.2,169.1L143.2,169.1z"/>
	<path d="M158,163.8h2.1v16.5H158V163.8z"/>
	<path d="M167.4,166.5H165v-2.3h2.3L167.4,166.5L167.4,166.5z M165.2,169.1h2.1v11.2h-2.1V169.1z"/>
	<path d="M179.3,170.9c-0.8-0.3-1.6-0.5-2.2-0.5c-2.3,0-3.6,2.1-3.6,4.2c0,2,1.1,4.2,3.7,4.2c0.7,0,1.6-0.2,2.2-0.6l0.2,1.8
		c-0.9,0.4-1.8,0.5-2.6,0.5c-3.4,0-5.7-2.7-5.7-5.9c0-3.4,2.3-5.9,5.7-5.9c0.8,0,1.9,0.2,2.5,0.4L179.3,170.9z"/>
	<path d="M183,163.8h2.1v6.9l0,0c0.7-1.2,2-1.9,3.6-1.9c2.9,0,4.2,1.8,4.2,4.8v6.7h-2.1v-5.8c0-2.6-0.6-3.9-2.4-4
		c-2.4,0-3.4,1.9-3.4,4.6v5.2h-2V163.8z"/>
	<path d="M253,180.3h-2.5l-4-11.2h2.3l3,9.2l0,0l3.1-9.2h2.1L253,180.3z"/>
	<path d="M268.8,179.8c-0.8,0.3-1.7,0.7-3.5,0.7c-4,0-5.8-2.4-5.8-6.1c0-3.3,2.1-5.7,5.3-5.7c3.7,0,5,2.7,5,6.3h-8
		c0,2.2,1.7,3.7,3.7,3.7c1.4,0,2.9-0.7,3.5-1.1v2.2H268.8z M267.4,173.6c0-1.7-1-3.1-2.8-3.1c-2,0-2.9,1.7-3,3.1H267.4z"/>
	<path d="M273.5,169.1h1.9v1.7l0,0c0.5-1.2,1.7-2,2.9-2c0.6,0,0.9,0.1,1.4,0.2v1.8c-0.4-0.2-0.8-0.2-1.1-0.2c-1.8,0-3.1,1.8-3.1,4.6
		v5.1h-2.1v-11.2H273.5z"/>
	<path d="M283.4,163.8h2.1v16.5h-2.1V163.8z"/>
	<path d="M290.9,169.8c1-0.6,2.3-1.1,3.7-1.1c3.2,0,4.5,1.6,4.5,4.6v4.6c0,1.3,0,1.9,0.1,2.2h-1.9v-1.5l0,0
		c-0.5,0.7-1.6,1.7-3.5,1.7c-2.4,0-4.1-1.1-4.1-3.5c0-2.8,3.1-3.7,5.2-3.7c0.8,0,1.4,0,2.2,0c0-1.9-0.7-2.9-2.8-2.9
		c-1.2,0-2.4,0.4-3.3,1.1L290.9,169.8z M297,174.9c-0.4,0-0.9,0-1.3,0c-1.1,0-3.9,0.2-3.9,2.2c0,1.2,1.1,1.8,2.1,1.8
		c2,0,3.1-1.3,3.1-2.9L297,174.9L297,174.9z M291.9,165.1h2.1v2.2h-2.1V165.1z M295.5,165.1h2.1v2.2h-2.1V165.1z"/>
	<path d="M302.9,178.1c0.8,0.5,2,0.8,2.6,0.8c0.9,0,2.1-0.4,2.1-1.6c0-2-4.9-1.9-4.9-5c0-2.3,1.7-3.5,4-3.5c1,0,1.8,0.2,2.6,0.4
		L309,171c-0.5-0.3-1.7-0.6-2.2-0.6c-1.1,0-2,0.4-2,1.4c0,2.3,4.9,1.6,4.9,5.2c0,2.4-1.9,3.5-3.9,3.5c-1.1,0-2.1-0.1-3.1-0.6
		L302.9,178.1z"/>
	<path d="M312.5,178.1c0.8,0.5,2,0.8,2.6,0.8c0.9,0,2.1-0.4,2.1-1.6c0-2-4.9-1.9-4.9-5c0-2.3,1.7-3.5,4-3.5c1,0,1.8,0.2,2.6,0.4
		l-0.2,1.8c-0.5-0.3-1.7-0.6-2.2-0.6c-1.1,0-2,0.4-2,1.4c0,2.3,4.9,1.6,4.9,5.2c0,2.4-1.9,3.5-3.9,3.5c-1.1,0-2.1-0.1-3.1-0.6
		L312.5,178.1z"/>
	<path d="M323.3,163.8h2.1v16.5h-2.1V163.8z"/>
	<path d="M332.7,166.5h-2.3v-2.3h2.3V166.5z M330.5,169.1h2.1v11.2h-2.1V169.1z"/>
	<path d="M344.6,170.9c-0.8-0.3-1.6-0.5-2.2-0.5c-2.3,0-3.6,2.1-3.6,4.2c0,2,1.1,4.2,3.7,4.2c0.7,0,1.6-0.2,2.2-0.6l0.2,1.8
		c-0.9,0.4-1.8,0.5-2.6,0.5c-3.4,0-5.7-2.7-5.7-5.9c0-3.4,2.3-5.9,5.7-5.9c0.8,0,1.9,0.2,2.5,0.4L344.6,170.9z"/>
	<path d="M348.3,163.8h2.1v6.9l0,0c0.7-1.2,2-1.9,3.6-1.9c2.9,0,4.2,1.8,4.2,4.8v6.7h-2.1v-5.8c0-2.6-0.6-3.9-2.4-4
		c-2.4,0-3.4,1.9-3.4,4.6v5.2h-2.1L348.3,163.8L348.3,163.8z"/>
	<path d="M415.8,166.5h-2.3v-2.3h2.3V166.5z M413.6,169.1h2.1v11.2h-2.1V169.1z"/>
	<path d="M420.6,169.1h2v1.8l0,0c0.6-1.3,2.1-2,3.7-2c2.9,0,4.2,1.8,4.2,4.8v6.7h-2.1v-5.8c0-2.6-0.6-3.9-2.4-4
		c-2.4,0-3.4,1.9-3.4,4.6v5.2h-2.1L420.6,169.1L420.6,169.1z"/>
	<path d="M435.1,169.1h2v1.8l0,0c0.6-1.3,2.1-2,3.7-2c2.9,0,4.2,1.8,4.2,4.8v6.7h-2v-5.8c0-2.6-0.6-3.9-2.4-4
		c-2.4,0-3.4,1.9-3.4,4.6v5.2h-2.1V169.1z"/>
	<path d="M454.6,168.8c3.4,0,5.7,2.5,5.7,5.9c0,3.2-2.3,5.9-5.7,5.9c-3.4,0-5.7-2.7-5.7-5.9C448.9,171.3,451.2,168.8,454.6,168.8z
		 M454.6,178.9c2.4,0,3.5-2.2,3.5-4.2c0-2.1-1.3-4.2-3.5-4.2s-3.5,2.1-3.5,4.2C451.1,176.7,452.2,178.9,454.6,178.9z"/>
	<path d="M469.2,180.3h-2.5l-4-11.2h2.3l3,9.2l0,0l3.1-9.2h2.1L469.2,180.3z"/>
	<path d="M476.8,169.8c1-0.6,2.3-1.1,3.7-1.1c3.2,0,4.5,1.6,4.5,4.6v4.6c0,1.3,0,1.9,0.1,2.2h-1.9v-1.5l0,0
		c-0.5,0.7-1.6,1.7-3.5,1.7c-2.4,0-4.1-1.1-4.1-3.5c0-2.8,3.1-3.7,5.2-3.7c0.8,0,1.4,0,2.2,0c0-1.9-0.7-2.9-2.8-2.9
		c-1.2,0-2.4,0.4-3.3,1.1L476.8,169.8z M483,174.9c-0.4,0-0.9,0-1.3,0c-1.1,0-3.9,0.2-3.9,2.2c0,1.2,1.1,1.8,2.1,1.8
		c2,0,3.1-1.3,3.1-2.9L483,174.9L483,174.9z"/>
	<path d="M495.6,170.7h-3v6.1c0,1.3,0.8,2,1.7,2c0.6,0,1.1-0.2,1.4-0.4v1.8c-0.5,0.1-1.1,0.3-1.8,0.3c-2.1,0-3.5-1-3.5-3.3v-6.6H488
		v-1.7h2.5v-2.6l2.1-0.7v3.3h3V170.7z"/>
	<path d="M501.8,166.5h-2.3v-2.3h2.3V166.5z M499.6,169.1h2.1v11.2h-2.1V169.1z"/>
	<path d="M511.5,180.3H509l-4-11.2h2.3l3,9.2l0,0l3.1-9.2h2.1L511.5,180.3z"/>
</g>
<rect x="214.6" y="168.9" class="st0" width="11.3" height="11.3"/>
<rect x="380.5" y="168.9" class="st0" width="11.3" height="11.3"/>
</svg>
